<svg xmlns="http://www.w3.org/2000/svg" viewBox="0 0 240 260">
  <defs>
    <linearGradient id="orange" x1="0" y1="0" x2="0" y2="1"><stop offset="0%" stop-color="#F47A45"/><stop offset="100%" stop-color="#B83F12"/></linearGradient>
    <linearGradient id="navy" x1="0" y1="0" x2="0" y2="1"><stop offset="0%" stop-color="#3B4A82"/><stop offset="100%" stop-color="#1E2956"/></linearGradient>
    <radialGradient id="face" cx="0.5" cy="0.4" r="0.65"><stop offset="0%" stop-color="#9DC9FF"/><stop offset="60%" stop-color="#3D7BD9"/><stop offset="100%" stop-color="#0E2A66"/></radialGradient>
    <radialGradient id="cog" cx="0.4" cy="0.4" r="0.7"><stop offset="0%" stop-color="#E6E9EE"/><stop offset="100%" stop-color="#5A6975"/></radialGradient>
    <linearGradient id="steel" x1="0" y1="0" x2="0" y2="1"><stop offset="0%" stop-color="#E6E9EE"/><stop offset="100%" stop-color="#7E8997"/></linearGradient>
  </defs>
  <line x1="92" y1="40" x2="84" y2="14" stroke="#3A4854" stroke-width="3" stroke-linecap="round"/>
  <line x1="148" y1="40" x2="156" y2="18" stroke="#3A4854" stroke-width="3" stroke-linecap="round"/>
  <g transform="translate(84,14)"><polygon points="0,-9 3,-3 9,-2 5,3 6,9 0,6 -6,9 -5,3 -9,-2 -3,-3" fill="url(#cog)" stroke="#2C3640" stroke-width="0.8"/><circle r="2" fill="#1A222A"/></g>
  <g transform="translate(156,18)"><polygon points="0,-9 3,-3 9,-2 5,3 6,9 0,6 -6,9 -5,3 -9,-2 -3,-3" fill="url(#cog)" stroke="#2C3640" stroke-width="0.8"/><circle r="2" fill="#1A222A"/></g>
  <path d="M 60 80 Q 120 30 180 80 L 180 110 Q 120 95 60 110 Z" fill="url(#orange)"/>
  <text x="120" y="78" text-anchor="middle" font-family="Helvetica,Arial,sans-serif" font-size="18" font-weight="900" fill="#FFF6EE" letter-spacing="2">KEEF</text>
  <ellipse cx="56" cy="100" rx="8" ry="14" fill="#3A4854"/>
  <ellipse cx="184" cy="100" rx="8" ry="14" fill="#3A4854"/>
  <rect x="68" y="92" width="104" height="56" rx="14" fill="url(#face)"/>
  <circle cx="96" cy="118" r="6" fill="#9DC9FF"/>
  <circle cx="144" cy="118" r="6" fill="#9DC9FF"/>
  <path d="M 100 132 Q 120 144 140 132" stroke="#9DC9FF" stroke-width="2.5" fill="none" stroke-linecap="round"/>
  <rect x="78" y="148" width="84" height="68" rx="10" fill="url(#navy)"/>
  <rect x="86" y="160" width="68" height="56" rx="6" fill="#1E2956" stroke="#E25822" stroke-width="2"/>
  <circle cx="120" cy="186" r="9" fill="none" stroke="#E25822" stroke-width="2"/>
  <!-- left arm holding wrench -->
  <line x1="78" y1="160" x2="46" y2="130" stroke="url(#navy)" stroke-width="14" stroke-linecap="round"/>
  <circle cx="42" cy="126" r="11" fill="#C9D2DD"/>
  <g transform="translate(38,108) rotate(-30)">
    <rect x="-4" y="-30" width="8" height="42" rx="2" fill="url(#steel)" stroke="#5A6975" stroke-width="0.8"/>
    <path d="M -10 -30 Q -10 -42 0 -42 Q 10 -42 10 -30 L 7 -30 L 7 -36 Q 0 -38 -7 -36 L -7 -30 Z" fill="url(#steel)" stroke="#5A6975" stroke-width="0.8"/>
  </g>
  <!-- right arm thumbs up -->
  <line x1="162" y1="160" x2="190" y2="130" stroke="url(#navy)" stroke-width="14" stroke-linecap="round"/>
  <circle cx="194" cy="126" r="11" fill="#C9D2DD"/>
  <rect x="190" y="106" width="8" height="14" rx="3" fill="#C9D2DD"/>
  <ellipse cx="100" cy="226" rx="12" ry="6" fill="#5A6975"/>
  <ellipse cx="140" cy="226" rx="12" ry="6" fill="#5A6975"/>
  <ellipse cx="120" cy="245" rx="48" ry="5" fill="#000" opacity="0.12"/>
</svg>
